<svg xmlns="http://www.w3.org/2000/svg" xmlns:xlink="http://www.w3.org/1999/xlink" viewBox="0 0 173.02 51.96"><defs><linearGradient id="a" x1="2.47" y1="39.96" x2="30.72" y2="23.67" gradientTransform="matrix(1, 0, 0, -1, 0, 54)" gradientUnits="userSpaceOnUse"><stop offset="0" stop-color="#7900ff"/><stop offset="1" stop-color="#381ee5"/></linearGradient><linearGradient id="b" x1="19.22" y1="27.27" x2="41.5" y2="14.43" xlink:href="#a"/><linearGradient id="c" x1="27.56" y1="13.2" x2="27.65" y2="13.14" xlink:href="#a"/></defs><path d="M25.73,3.57a4.32,4.32,0,0,0-.22,1.3v5.62L13.43,22.29c-1.29,1.25-2.36,2.89-1.46,4.61a8.15,8.15,0,0,0,1.55,1.85l.13.12q4.24,4,8.42,8.19l1.64,1.59,1.63,1.6-7,6.8L2.68,31.77a8.8,8.8,0,0,1-.3-12.34,5.12,5.12,0,0,1,.78-.84L16,6A10.13,10.13,0,0,1,25.73,3.57Z" style="fill:url(#a)"/><path d="M46.23,31.6h0c-.21.25-.43.51-.64.72l-19.73,19a2.21,2.21,0,0,1-1.55.63,2.31,2.31,0,0,1-1.59-.63l-3-2.9L27.49,41l.26-.25,1.16-1.09c2.79-2.69,7.65-7.39,10.4-10a3,3,0,0,0,.86-1.43,2.46,2.46,0,0,0-.08-1.26,2.56,2.56,0,0,0-.65-1.09,2.61,2.61,0,0,1-.38-.42l-.35-.33-.47-.47-.56-.54L37,23.42l-.68-.67a10.27,10.27,0,0,1-.73-.76l-.78-.75c-.26-.26-.51-.51-.77-.8s-.52-.55-.82-.8-.51-.5-.77-.8l-.78-.75L31,17.38a8.48,8.48,0,0,1-.64-.68l-.6-.58-.52-.51a3.22,3.22,0,0,1-.39-.42l-.3-.29-.17-.17,0,0,.13-.13h7.05a4.46,4.46,0,0,0,1.5-.25l8.86,8.77A6.17,6.17,0,0,1,46.23,31.6Z" style="fill:url(#b)"/><path d="M27.75,40.71l-.26.25Z" style="fill:url(#c)"/><path d="M40.6,0V8.73a4,4,0,0,1-4,3.9H27.66V3.9a4,4,0,0,1,4-3.9Z" style="fill:#04b7a5"/><path d="M88.93,17.28h3V34.16h-3V31.72a6.14,6.14,0,0,1-5.59,2.86c-4,0-6.71-2.65-6.71-7V17.28h3v10.2a4,4,0,0,0,4.3,4.33c3,0,5-1.81,5-5.59V17.28Z" style="fill:#333"/><path d="M99.5,20.14A5.44,5.44,0,0,1,104.88,17v3.06a5.38,5.38,0,0,0-3.79,1.14,4.75,4.75,0,0,0-1.59,4v8.94h-3V17.28h3Z" style="fill:#333"/><path d="M120.28,17.48h3V34.35h-3V31.46a7.38,7.38,0,0,1-6.53,3.35,8.4,8.4,0,0,1-6.19-2.56A8.75,8.75,0,0,1,105,26a8.58,8.58,0,0,1,2.54-6.25,8.35,8.35,0,0,1,6.19-2.61,7.39,7.39,0,0,1,6.53,3.36Zm-1.76,12.76a5.91,5.91,0,0,0,1.76-4.32,5.74,5.74,0,0,0-1.76-4.28,6.27,6.27,0,0,0-8.73,0A5.74,5.74,0,0,0,108,25.92a5.91,5.91,0,0,0,1.76,4.32A6,6,0,0,0,114.13,32,5.89,5.89,0,0,0,118.52,30.24Z" style="fill:#333"/><path d="M153.93,23.66v10.5h-3V23.79c0-2.6-1.5-4.11-3.78-4.11-2.58,0-4.26,1.63-4.26,5.12v9.36h-3V23.79c0-2.6-1.42-4.11-3.65-4.11-2.54,0-4.43,1.72-4.43,5.12v9.36h-3V17.28h3v2.27A5.78,5.78,0,0,1,137,16.86,5.42,5.42,0,0,1,142,19.72a5.93,5.93,0,0,1,5.42-2.86C151.31,16.86,153.93,19.51,153.93,23.66Z" style="fill:#333"/><path d="M170,17.28h3V34.16h-3V31.72a6.13,6.13,0,0,1-5.59,2.86c-4,0-6.71-2.65-6.71-7V17.28h3v10.2a4,4,0,0,0,4.3,4.33c3,0,5-1.81,5-5.59V17.28Z" style="fill:#333"/><path d="M65.25,17a7.31,7.31,0,0,0-6.49,3.34v-2.9h-3V41.07h3V31.43a7.31,7.31,0,0,0,6.49,3.34,8.27,8.27,0,0,0,6.14-2.57,8.73,8.73,0,0,0,2.54-6.31,8.66,8.66,0,0,0-2.54-6.27A8.3,8.3,0,0,0,65.25,17Zm-.38,14.91a5.93,5.93,0,0,1-6.11-6,5.77,5.77,0,0,1,1.75-4.28,6.27,6.27,0,0,1,8.69,0A5.77,5.77,0,0,1,71,25.89a5.93,5.93,0,0,1-6.08,6Z" style="fill:#333"/></svg>